# xmcd CD database file
#
# Track frame offsets:
#	150
#	7517
#	37185
#	49795
#	71225
#	98847
#	133682
#	157830
#
# Disc length: 2402 seconds
#
# Revision: 4
# Processed by: cddbd v1.5.2PL0 Copyright (c) Steve Scherf et al.
# Submitted via: CDex 1.50
#
DISCID=5f096008
DTITLE=World Saxophone Quartet - Plays Duke Ellington
DYEAR=1986
DGENRE=Jazz
TTITLE0=Take The "A" Train
TTITLE1=Lush Life
TTITLE2=Prelude To A Kiss
TTITLE3=Sophisticated Lady
TTITLE4=I Let A  Song Go Out Of My Heart
TTITLE5=Come Sunday
TTITLE6=In A Sentimental Mood
TTITLE7=Take The "A" Train
EXTD=YEAR: 1986
EXTT0=
EXTT1=
EXTT2=
EXTT3=
EXTT4=
EXTT5=
EXTT6=
EXTT7=
PLAYORDER=
